<svg xmlns="http://www.w3.org/2000/svg" width="44.29" height="44.291" viewBox="0 0 44.29 44.291">
  <g id="Grupo_139" data-name="Grupo 139" transform="translate(-466.205 -1482)">
    <path id="Caminho_92" data-name="Caminho 92" d="M477.91,1513.363a.735.735,0,0,0-.632-.358h-4.429a.736.736,0,0,0-.633.358l-2.215,3.69a.742.742,0,0,0,0,.761l2.215,3.691a.738.738,0,0,0,.633.358h4.429a.737.737,0,0,0,.632-.358l2.215-3.691a.742.742,0,0,0,0-.761Zm-1.05,7.023h-3.594l-1.771-2.952,1.771-2.953h3.594l1.772,2.953Z" fill="#265f3b"/>
    <path id="Caminho_93" data-name="Caminho 93" d="M487.612,1511.834l1.042-1.042-.005-.005,6.345-6.335h0l1.044-1.044,3.87-3.87a8.662,8.662,0,0,0,1.729.18,8.828,8.828,0,0,0,8.587-11,.738.738,0,0,0-1.238-.344l-4.6,4.592-3.646-1.215-1.216-3.645,4.6-4.6a.739.739,0,0,0,0-1.044.747.747,0,0,0-.346-.2,8.834,8.834,0,0,0-11,8.587,8.661,8.661,0,0,0,.18,1.73l-16.166,16.166a8.744,8.744,0,0,0-1.73-.18,8.858,8.858,0,1,0,8.858,8.859,8.733,8.733,0,0,0-.179-1.73Zm-10.765,12.85a7.431,7.431,0,1,1,0-14.4.746.746,0,0,0,.7-.194l16.741-16.743a.733.733,0,0,0,.194-.7,7.346,7.346,0,0,1,7.573-9.153l-3.894,3.9a.738.738,0,0,0-.179.755l1.476,4.429a.74.74,0,0,0,.468.467l4.429,1.476a.736.736,0,0,0,.755-.178l3.894-3.894c.008.141.013.281.013.419a7.346,7.346,0,0,1-9.166,7.153.736.736,0,0,0-.7.194h0l-16.746,16.742a.741.741,0,0,0-.2.7A7.429,7.429,0,0,1,476.847,1524.684Z" fill="#265f3b"/>
  </g>
</svg>
