<svg xmlns="http://www.w3.org/2000/svg" width="26.591" height="20.693" viewBox="0 0 26.591 20.693">
  <g id="Grupo_7" data-name="Grupo 7" transform="translate(-212.344 -691.157)">
    <path id="Caminho_21" data-name="Caminho 21" d="M217.17,706.541l-.159-.415c-.053-.147-.1-.3-.153-.46s-.11-.325-.161-.5-.1-.355-.148-.54c-.026-.093-.051-.187-.077-.282s-.044-.193-.066-.291c-.044-.2-.092-.4-.133-.6-.072-.412-.157-.834-.2-1.269-.065-.432-.09-.875-.127-1.314-.014-.443-.039-.883-.024-1.316,0-.433.033-.858.056-1.268.018-.205.042-.405.063-.6l.031-.291c.014-.095.029-.189.043-.282.029-.186.057-.365.085-.539s.068-.34.1-.5.062-.313.1-.458.071-.28.1-.409.062-.247.091-.358.063-.21.09-.3c.065-.213.114-.369.142-.464l.663-2.89c-.578.622-8.629,9.482-3.357,14.821a4.757,4.757,0,0,0,3,1.08l.163-.005c.033,0,.066,0,.1-.006-.025-.054-.05-.112-.076-.176l-.14-.366" fill="#a5cd39"/>
    <path id="Caminho_22" data-name="Caminho 22" d="M221.444,700.268a15.918,15.918,0,0,0-1.059-1.951c-3.584-5.665-2.868-7.16-2.868-7.16l-.033.035c-.169.738-.446,1.954-.657,2.869l.025-.082-.1.584c-.016.094-.037.2-.053.308s-.03.234-.047.365-.035.268-.054.413-.025.3-.039.461-.03.327-.039.5-.012.352-.017.536c0,.092-.006.185-.009.279s0,.189,0,.286c0,.192,0,.388.009.588.027.4.041.81.1,1.224.036.416.112.834.174,1.251.087.413.161.827.272,1.227.093.4.222.79.333,1.165.064.186.131.367.193.545.032.088.063.176.094.263l.1.252c.067.166.134.327.2.482s.139.3.2.442.128.278.191.4l.184.348.161.3c.053.1.109.188.156.269l.146.249a4.833,4.833,0,0,0,.794-.425,6.129,6.129,0,0,1,1.643-6.03" fill="#a5cd39"/>
    <g id="Grupo_6" data-name="Grupo 6">
      <path id="Caminho_23" data-name="Caminho 23" d="M238.925,694.976l-3.618,2.04c-.126.059-.334.159-.616.291-.12.058-.254.118-.4.19l-.457.243-.521.278c-.182.1-.368.217-.565.332s-.4.236-.612.368l-.637.422-.334.222c-.108.08-.219.16-.33.241-.222.165-.454.329-.683.5-.445.363-.92.726-1.365,1.138-.464.393-.895.835-1.341,1.266-.42.453-.855.9-1.242,1.371-.406.459-.762.945-1.122,1.408-.172.236-.334.474-.5.705-.081.115-.16.231-.239.344s-.148.23-.22.344c-.143.228-.284.45-.419.664s-.247.433-.365.637-.23.4-.332.592-.192.382-.28.556l-.247.492c-.042.087-.077.167-.112.243-.032-.032-.066-.063-.1-.1-.053-.056-.106-.112-.158-.164a6.669,6.669,0,0,1-1.71-4.125c.556-10.5,17.327-10.517,18.518-10.505" fill="#a5cd39"/>
      <path id="Caminho_24" data-name="Caminho 24" d="M225.324,708.249l.312-.659q.081-.171.165-.345l.183-.346c.125-.232.249-.473.383-.713.283-.47.562-.968.891-1.445.309-.492.668-.96,1.016-1.439.372-.458.733-.932,1.129-1.361.38-.446.791-.849,1.18-1.253.2-.194.4-.38.6-.564l.292-.274c.1-.086.2-.17.3-.254l.572-.487c.187-.154.376-.292.553-.432s.349-.272.515-.393l.478-.335q.228-.157.423-.295c.132-.089.257-.164.369-.235.447-.283.7-.444.7-.444l-.109.052c1.146-.646,2.667-1.506,3.59-2.027h.068s-2.224.67-4.71,9.726a21.54,21.54,0,0,1-1.188,3.308,6.566,6.566,0,0,1-1.05,1.614,6.687,6.687,0,0,1-7.769,1.582c.034-.11.074-.237.121-.386.04-.125.081-.271.131-.415s.106-.293.164-.455l.187-.519c.07-.183.155-.376.237-.578s.168-.413.266-.628" fill="#a5cd39"/>
    </g>
  </g>
</svg>
