<svg xmlns="http://www.w3.org/2000/svg" width="38.145" height="38.145" viewBox="0 0 38.145 38.145">
  <g id="Grupo_137" data-name="Grupo 137" transform="translate(-861.453 -1487.741)">
    <g id="Grupo_136" data-name="Grupo 136">
      <path id="Caminho_91" data-name="Caminho 91" d="M861.453,1520.406a4.4,4.4,0,0,0,1.3,3.133l1.05,1.05a4.433,4.433,0,0,0,6.5-.249l10.031-11.44a.793.793,0,0,0-.035-1.085l-1.028-1.028.614-.614a9.359,9.359,0,0,0,5.415,1.409c3.615,0,6.747-2.945,9.333-5.827,2.4-2.675,4.971-8,4.971-11.657,0-3.56-.815-5.021-.908-5.177a.8.8,0,0,0-.272-.272c-.156-.093-1.617-.908-5.177-.908-3.66,0-8.982,2.57-11.657,4.971-2.882,2.586-5.827,5.718-5.827,9.333a9.358,9.358,0,0,0,1.409,5.415l-.614.614-1.028-1.028a.8.8,0,0,0-1.085-.035l-11.446,10.037A4.422,4.422,0,0,0,861.453,1520.406Zm19.552-11.359,4.851-4.85a1.919,1.919,0,0,0-2.714-2.713l-4.85,4.85a8.2,8.2,0,0,1-.945-4.289c0-2.991,2.679-5.8,5.3-8.15,2.405-2.159,7.348-4.565,10.6-4.565a3.513,3.513,0,0,1,4.768,4.768c0,3.247-2.406,8.19-4.565,10.595-2.352,2.62-5.159,5.3-8.15,5.3A8.2,8.2,0,0,1,881.005,1509.047Zm-2.864.616-.465-.465,6.59-6.591a.329.329,0,0,1,.466.466Zm-15.1,10.743a2.842,2.842,0,0,1,.993-2.158l10.892-9.552,3.716,3.716L869.1,1523.3a2.933,2.933,0,0,1-4.173.167l-1.049-1.049A2.865,2.865,0,0,1,863.042,1520.406Z" fill="#265f3b"/>
    </g>
  </g>
</svg>
