<svg xmlns="http://www.w3.org/2000/svg" width="36.872" height="28.665" viewBox="0 0 36.872 28.665">
  <g id="Grupo_130" data-name="Grupo 130" transform="translate(-210.135 -1488.208)">
    <g id="Grupo_109" data-name="Grupo 109">
      <g id="Grupo_108" data-name="Grupo 108">
        <path id="Caminho_74" data-name="Caminho 74" d="M224.691,1492.511a2.433,2.433,0,0,0-2.43,2.43.577.577,0,1,0,1.155,0,1.275,1.275,0,0,1,2.551,0,.577.577,0,1,0,1.155,0A2.433,2.433,0,0,0,224.691,1492.511Z" fill="#265f3b"/>
      </g>
    </g>
    <g id="Grupo_111" data-name="Grupo 111">
      <g id="Grupo_110" data-name="Grupo 110">
        <path id="Caminho_75" data-name="Caminho 75" d="M232.451,1492.511a2.433,2.433,0,0,0-2.43,2.43.577.577,0,1,0,1.155,0,1.275,1.275,0,1,1,2.55,0,.577.577,0,1,0,1.155,0A2.433,2.433,0,0,0,232.451,1492.511Z" fill="#265f3b"/>
      </g>
    </g>
    <g id="Grupo_113" data-name="Grupo 113">
      <g id="Grupo_112" data-name="Grupo 112">
        <path id="Caminho_76" data-name="Caminho 76" d="M228.571,1496.481a2.433,2.433,0,0,0-2.43,2.43.577.577,0,1,0,1.155,0,1.275,1.275,0,1,1,2.55,0,.578.578,0,1,0,1.155,0A2.433,2.433,0,0,0,228.571,1496.481Z" fill="#265f3b"/>
      </g>
    </g>
    <g id="Grupo_115" data-name="Grupo 115">
      <g id="Grupo_114" data-name="Grupo 114">
        <path id="Caminho_77" data-name="Caminho 77" d="M219.783,1496.481a2.433,2.433,0,0,0-2.43,2.43.577.577,0,1,0,1.155,0,1.275,1.275,0,1,1,2.55,0,.577.577,0,1,0,1.155,0A2.433,2.433,0,0,0,219.783,1496.481Z" fill="#265f3b"/>
      </g>
    </g>
    <g id="Grupo_117" data-name="Grupo 117">
      <g id="Grupo_116" data-name="Grupo 116">
        <path id="Caminho_78" data-name="Caminho 78" d="M237.359,1496.481a2.433,2.433,0,0,0-2.43,2.43.577.577,0,1,0,1.155,0,1.275,1.275,0,1,1,2.55,0,.577.577,0,1,0,1.155,0A2.433,2.433,0,0,0,237.359,1496.481Z" fill="#265f3b"/>
      </g>
    </g>
    <g id="Grupo_119" data-name="Grupo 119">
      <g id="Grupo_118" data-name="Grupo 118">
        <path id="Caminho_79" data-name="Caminho 79" d="M231.527,1512.356c-.281-1.266-1.492-3.1-2.946-3.1h-.02c-1.454,0-2.665,1.833-2.946,3.1-.268,1.208.32,1.626.585,1.75a2.454,2.454,0,0,0,1.663.119,2.869,2.869,0,0,1,.7-.086h.021a2.867,2.867,0,0,1,.7.086,2.839,2.839,0,0,0,.7.09h0a2.267,2.267,0,0,0,.967-.209C231.207,1513.982,231.795,1513.564,231.527,1512.356Zm-1.1.717a1.114,1.114,0,0,1-.449.087,1.7,1.7,0,0,1-.412-.054,4.006,4.006,0,0,0-.982-.122h-.02a4.006,4.006,0,0,0-.982.122,1.334,1.334,0,0,1-.861-.033,2.323,2.323,0,0,1,.427-1.444c.425-.728.994-1.217,1.416-1.217h.02c.422,0,.991.489,1.416,1.217A2.323,2.323,0,0,1,230.424,1513.073Z" fill="#265f3b"/>
      </g>
    </g>
    <g id="Grupo_121" data-name="Grupo 121">
      <g id="Grupo_120" data-name="Grupo 120">
        <path id="Caminho_80" data-name="Caminho 80" d="M228.3,1506.188a1.936,1.936,0,0,0-3.53,1.59,2.5,2.5,0,0,0,2.1,1.4h0a1.534,1.534,0,0,0,.639-.134A2.21,2.21,0,0,0,228.3,1506.188Zm-1.265,1.806a.4.4,0,0,1-.165.032h0a1.361,1.361,0,0,1-1.047-.723.78.78,0,0,1,.392-1.032.766.766,0,0,1,.319-.069.783.783,0,0,1,.713.461C227.463,1507.133,227.348,1507.855,227.039,1507.994Z" fill="#265f3b"/>
      </g>
    </g>
    <g id="Grupo_123" data-name="Grupo 123">
      <g id="Grupo_122" data-name="Grupo 122">
        <path id="Caminho_81" data-name="Caminho 81" d="M225.03,1508.443a1.74,1.74,0,0,0-1.925,2.9,2.652,2.652,0,0,0,1.409.394h0a1.589,1.589,0,0,0,1.391-.629C226.482,1510.239,225.761,1508.928,225.03,1508.443Zm-.087,2.027a.6.6,0,0,1-.429.112h0a1.533,1.533,0,0,1-.77-.2.585.585,0,1,1,.647-.975C224.775,1509.66,225.046,1510.314,224.943,1510.47Z" fill="#265f3b"/>
      </g>
    </g>
    <g id="Grupo_125" data-name="Grupo 125">
      <g id="Grupo_124" data-name="Grupo 124">
        <path id="Caminho_82" data-name="Caminho 82" d="M231.4,1505.218a1.935,1.935,0,0,0-2.56.97,2.64,2.64,0,0,0-.161,1.537,1.738,1.738,0,0,0,.951,1.322,1.542,1.542,0,0,0,.64.134,2.5,2.5,0,0,0,2.1-1.4A1.937,1.937,0,0,0,231.4,1505.218Zm-.083,2.085a1.357,1.357,0,0,1-1.047.723.4.4,0,0,1-.165-.032c-.195-.088-.27-.372-.293-.491a1.477,1.477,0,0,1,.081-.84.779.779,0,0,1,1.032-.392.78.78,0,0,1,.392,1.032Z" fill="#265f3b"/>
      </g>
    </g>
    <g id="Grupo_127" data-name="Grupo 127">
      <g id="Grupo_126" data-name="Grupo 126">
        <path id="Caminho_83" data-name="Caminho 83" d="M234.524,1508.93a1.738,1.738,0,0,0-2.412-.487,2.65,2.65,0,0,0-.9,1.114,1.437,1.437,0,0,0,1.416,2.18,2.643,2.643,0,0,0,1.409-.394A1.742,1.742,0,0,0,234.524,1508.93Zm-1.126,1.45a1.533,1.533,0,0,1-.77.2.6.6,0,0,1-.429-.112.606.606,0,0,1,.071-.449,1.518,1.518,0,0,1,.481-.616.585.585,0,1,1,.647.975Z" fill="#265f3b"/>
      </g>
    </g>
    <g id="Grupo_129" data-name="Grupo 129">
      <g id="Grupo_128" data-name="Grupo 128">
        <path id="Caminho_84" data-name="Caminho 84" d="M246.886,1507.84a36.174,36.174,0,0,0-3.461-8.874c.026-.04.053-.079.078-.119a3.3,3.3,0,0,0,.484-2.547,2.59,2.59,0,0,0-2.335-2.093,3.693,3.693,0,0,0-.706.068,3.718,3.718,0,0,0-4.125-2.343,3.726,3.726,0,0,0-3.539-2.59,3.679,3.679,0,0,0-1.7.409,3.717,3.717,0,0,0-6.03,0,3.678,3.678,0,0,0-1.7-.409,3.727,3.727,0,0,0-3.54,2.59,3.717,3.717,0,0,0-4.124,2.343,3.7,3.7,0,0,0-.707-.068,2.588,2.588,0,0,0-2.334,2.093,3.3,3.3,0,0,0,.483,2.547c.025.04.052.079.078.119-.555,1.061-1.451,2.857-2.21,4.767a.579.579,0,0,0,.324.75.591.591,0,0,0,.213.04.578.578,0,0,0,.537-.364c.651-1.64,1.408-3.2,1.951-4.254.064.06.132.119.2.177l.007.006,0,0c.049.041.1.082.15.122l.007.006.011.009c.123.1.252.193.387.286l.032.023.01.006.14.1.039.025.03.019.131.084.036.022.074.045.1.061.028.017.081.046.112.063.021.012.138.074.072.038.013.007c.069.036.14.072.212.107l.013.007h0c.064.034.135.07.214.109a23.8,23.8,0,0,0,8.016,1.935h0c.782.084,1.562.142,2.317.172a34.908,34.908,0,0,0,4.87-.144l.189-.017c.138-.012.275-.024.411-.038l.383-.04.162-.018c.181-.02.361-.042.54-.065a.578.578,0,0,0,.161-.046l.006,0,.031-.016.019-.01.034-.022.013-.009.032-.026.011-.009c.01-.008.018-.017.027-.025l.013-.013.022-.026.014-.017a.383.383,0,0,0,.024-.033l.008-.012c.009-.014.016-.028.024-.042l0-.007a.583.583,0,0,0,.039-.1v0a.564.564,0,0,0,.016-.229c0-.013,0-.026-.007-.039l0-.019v0a.578.578,0,0,0-.577-.441.564.564,0,0,0-.059,0h-.006c-.171.022-.343.043-.516.062l-.162.018c-.12.014-.241.026-.361.038l-.426.04c-1.134.1-2.3.151-3.5.151s-2.342-.05-3.452-.145l-.185-.018h-.009a23.083,23.083,0,0,1-7.519-1.774l-.031-.015-.081-.04c-.059-.03-.119-.059-.176-.09h0l-.008,0-.007,0-.018-.009c-.061-.03-.121-.06-.179-.091l-.155-.082-.026-.014c-1.814-.993-2.721-2.273-2.442-3.475a1.456,1.456,0,0,1,1.21-1.2,2.533,2.533,0,0,1,.9.163.579.579,0,0,0,.77-.43,2.561,2.561,0,0,1,3.393-1.91.577.577,0,0,0,.771-.467,2.565,2.565,0,0,1,2.537-2.222,2.539,2.539,0,0,1,1.54.516.577.577,0,0,0,.867-.208,2.56,2.56,0,0,1,4.606,0,.578.578,0,0,0,.868.208,2.537,2.537,0,0,1,1.54-.516,2.564,2.564,0,0,1,2.536,2.222.578.578,0,0,0,.772.467,2.561,2.561,0,0,1,3.393,1.91.578.578,0,0,0,.77.43,2.53,2.53,0,0,1,.9-.164,1.456,1.456,0,0,1,1.209,1.2c.3,1.283-.755,2.655-2.82,3.671l-.014.008a10.994,10.994,0,0,1-1.152.517l-.058.022a20.672,20.672,0,0,1-3.421.937.577.577,0,0,0,.168,1.141.418.418,0,0,0,.061-.008,21.147,21.147,0,0,0,3.791-1.063c.253-.09.485-.179.707-.273a9.612,9.612,0,0,0,1.721-1l.007-.005.01-.007.012-.008.034-.024c.1-.068.187-.136.276-.206l.028-.022c.116-.089.263-.2.407-.324a33.5,33.5,0,0,1,3.133,8.14c0,.016.006.032.01.048a2.691,2.691,0,0,1,.09.685v.059a.261.261,0,0,1,0,.041l0,.026c-.083,1.71-1.9,3.422-4.992,4.7a36.924,36.924,0,0,1-24.541.011c-3.087-1.267-4.916-2.972-5.018-4.678,0-.014,0-.028,0-.042a.349.349,0,0,1,0-.072c0-.014,0-.029,0-.043a2.677,2.677,0,0,1,.084-.659.312.312,0,0,0,.009-.044,15.646,15.646,0,0,1,.56-2.177.578.578,0,0,0-1.1-.357,17.09,17.09,0,0,0-.6,2.318,3.906,3.906,0,0,0-.113.9,1.566,1.566,0,0,0,.008.265c.142,2.191,2.177,4.2,5.732,5.659a38.055,38.055,0,0,0,25.419-.012c3.566-1.47,5.591-3.492,5.705-5.7a1.413,1.413,0,0,0,0-.147c0-.016,0-.033,0-.049A3.826,3.826,0,0,0,246.886,1507.84Z" fill="#265f3b"/>
      </g>
    </g>
  </g>
</svg>
