<svg xmlns="http://www.w3.org/2000/svg" width="24.362" height="28.461" viewBox="0 0 24.362 28.461">
  <g id="Grupo_135" data-name="Grupo 135" transform="translate(-216.39 -1543.416)">
    <path id="Caminho_88" data-name="Caminho 88" d="M236.025,1565.863c.3-.232.693-.376.75-.6.128-.508-.329-.5-.7-.614a6.59,6.59,0,0,1-1.565-.7,3.4,3.4,0,0,0-4.078.017,2.849,2.849,0,0,1-3.705.006,3.462,3.462,0,0,0-4.151,0c-.5.314-1.109.452-1.64.724a2.851,2.851,0,0,0-.6.565c.241.144.524.451.715.4a6.928,6.928,0,0,0,1.96-.747,2.693,2.693,0,0,1,3.309.008,3.557,3.557,0,0,0,4.482.008,2.657,2.657,0,0,1,3.308-.016A16.5,16.5,0,0,0,236.025,1565.863Z" fill="#265f3b"/>
    <path id="Caminho_89" data-name="Caminho 89" d="M239.679,1570.871v-12.7c-.447.241-.816.4-1.143.623a3.525,3.525,0,0,1-4.35,0,2.722,2.722,0,0,0-3.443-.006,3.475,3.475,0,0,1-4.344,0,2.655,2.655,0,0,0-3.371-.024,3.565,3.565,0,0,1-4.418.024c-.316-.212-.669-.368-1.169-.638v1.667q0,5.4,0,10.8a1.922,1.922,0,0,1-.036.707c-.086.206-.313.352-.478.525a2.747,2.747,0,0,1-.494-.52c-.079-.144-.023-.363-.023-.548v-12.472c0-1.192.132-1.318,1.286-1.069a11.609,11.609,0,0,1,1.388.487c.015-.214.042-.435.043-.656,0-3.919,0-7.838.008-11.757,0-1.464,1.129-2.307,2.259-1.71a1.652,1.652,0,0,1,.87,1.582c.006.761,0,1.522,0,2.325h12.627c0-.824-.035-1.636.008-2.443a1.556,1.556,0,0,1,2.268-1.462,1.583,1.583,0,0,1,.849,1.509c.01,3.548.017,7.1-.019,10.645,0,.268-.352.532-.54.8-.164-.289-.468-.576-.471-.866-.034-3.257-.021-6.514-.022-9.771,0-.212,0-.424,0-.636-.007-.383-.024-.841-.537-.757-.191.032-.439.488-.443.753-.034,2.753-.023,5.507-.025,8.261v4.871a2.475,2.475,0,0,0,1.9-.4,10.851,10.851,0,0,1,1.936-.831c.589-.182.953.059.951.76q-.017,6.555,0,13.108c0,.632-.28.826-.87.825-6.621-.01-13.241,0-19.861-.027-.285,0-.8-.292-.812-.477-.042-.569.486-.5.868-.5q9.294-.006,18.589,0Zm-4.837-15.387H222.313v2.411c2.391-1.077,2.587-1.056,5.016.273a2.5,2.5,0,0,0,2.636-.076,8.092,8.092,0,0,1,1.687-.834,3.58,3.58,0,0,1,3.19.721Zm.01-4.822H222.313v1.612h12.539Zm0-2.071H222.339v.955h12.515Zm-13.746,9.851a.826.826,0,0,0,.07-.2c.005-4.368.015-8.736-.011-13.1,0-.219-.322-.436-.494-.654-.161.285-.46.569-.462.856-.031,4.129-.01,8.259-.034,12.389C220.173,1558.439,220.437,1558.629,221.108,1558.442Zm1.2-4.1h12.536v-.9H222.3Z" fill="#265f3b"/>
    <path id="Caminho_90" data-name="Caminho 90" d="M236.025,1565.863a16.5,16.5,0,0,1-1.906-.949,2.657,2.657,0,0,0-3.308.016,3.557,3.557,0,0,1-4.482-.008,2.693,2.693,0,0,0-3.309-.008,6.928,6.928,0,0,1-1.96.747c-.191.049-.474-.258-.715-.4a2.851,2.851,0,0,1,.6-.565c.531-.272,1.139-.41,1.64-.724a3.462,3.462,0,0,1,4.151,0,2.849,2.849,0,0,0,3.705-.006,3.4,3.4,0,0,1,4.078-.017,6.59,6.59,0,0,0,1.565.7c.367.112.824.106.7.614C236.718,1565.487,236.328,1565.631,236.025,1565.863Z" fill="#265f3b"/>
  </g>
</svg>
