<svg xmlns="http://www.w3.org/2000/svg" width="39.457" height="38.923" viewBox="0 0 39.457 38.923">
  <g id="Grupo_104" data-name="Grupo 104" transform="translate(-683.394 -1484.797)">
    <g id="Grupo_99" data-name="Grupo 99">
      <g id="Grupo_98" data-name="Grupo 98">
        <path id="Caminho_70" data-name="Caminho 70" d="M721.15,1493.1a5.78,5.78,0,0,0-4.114-1.7,5.883,5.883,0,0,0-.842.061,5.819,5.819,0,1,0-10.664,2.286l-12.869,12.87a5.818,5.818,0,1,0-3.45,10.5,5.906,5.906,0,0,0,.843-.06,5.819,5.819,0,1,0,10.445-2.606l12.788-12.787a5.818,5.818,0,0,0,7.863-8.564Zm-1.09,7.138a4.275,4.275,0,0,1-6.048,0c-.054-.054-.108-.111-.161-.17a.769.769,0,0,0-1.118-.03l-13.824,13.823a.772.772,0,0,0-.011,1.079,4.3,4.3,0,0,1-.061,5.984,4.277,4.277,0,0,1-6.973-4.668.771.771,0,0,0-.712-1.067.786.786,0,0,0-.3.059,4.277,4.277,0,1,1,1.316-7.035.77.77,0,0,0,1.079-.011l13.834-13.834a.771.771,0,0,0,.049-1.036,4.277,4.277,0,1,1,7.25-1.074.771.771,0,0,0,1.008,1.007,4.277,4.277,0,0,1,4.668,6.973Z" fill="#265f3b"/>
      </g>
    </g>
    <g id="Grupo_101" data-name="Grupo 101">
      <g id="Grupo_100" data-name="Grupo 100">
        <path id="Caminho_71" data-name="Caminho 71" d="M700.293,1503.888a.771.771,0,0,0-1.09,0l-3.6,3.594a.771.771,0,1,0,1.09,1.09l3.6-3.594A.771.771,0,0,0,700.293,1503.888Z" fill="#265f3b"/>
      </g>
    </g>
    <g id="Grupo_103" data-name="Grupo 103">
      <g id="Grupo_102" data-name="Grupo 102">
        <path id="Caminho_72" data-name="Caminho 72" d="M701.93,1502.25a.771.771,0,0,0-1.09,0l-.018.018a.771.771,0,1,0,1.09,1.09l.018-.018A.771.771,0,0,0,701.93,1502.25Z" fill="#265f3b"/>
      </g>
    </g>
  </g>
</svg>
