<svg xmlns="http://www.w3.org/2000/svg" width="41.635" height="37.472" viewBox="0 0 41.635 37.472">
  <g id="Grupo_153" data-name="Grupo 153" transform="translate(-688.059 -1538.591)">
    <g id="Grupo_152" data-name="Grupo 152">
      <g id="Grupo_141" data-name="Grupo 141">
        <path id="Caminho_94" data-name="Caminho 94" d="M698.468,1576.063a10.409,10.409,0,1,1,10.408-10.41A10.422,10.422,0,0,1,698.468,1576.063Zm0-19.43a9.02,9.02,0,1,0,9.021,9.02A9.031,9.031,0,0,0,698.468,1556.633Z" fill="#265f3b"/>
      </g>
      <g id="Grupo_142" data-name="Grupo 142">
        <path id="Caminho_95" data-name="Caminho 95" d="M723.449,1576.063a6.246,6.246,0,1,1,6.245-6.246A6.252,6.252,0,0,1,723.449,1576.063Zm0-11.1a4.857,4.857,0,1,0,4.857,4.857A4.864,4.864,0,0,0,723.449,1564.96Z" fill="#265f3b"/>
      </g>
      <g id="Grupo_143" data-name="Grupo 143">
        <path id="Caminho_96" data-name="Caminho 96" d="M717.9,1555.245h-5.551a.693.693,0,0,1-.652-.457l-5.385-14.809H694.861l-2.655,11.947a.694.694,0,1,1-1.354-.3l2.775-12.49a.693.693,0,0,1,.677-.544h12.491a.693.693,0,0,1,.652.457l5.385,14.808H717.9a.695.695,0,0,1,0,1.389Z" fill="#265f3b"/>
      </g>
      <g id="Grupo_144" data-name="Grupo 144">
        <path id="Caminho_97" data-name="Caminho 97" d="M717.9,1570.512h-6.939a.7.7,0,0,1-.694-.695v-4.164a11.8,11.8,0,0,0-20.972-7.414.694.694,0,1,1-1.079-.873,13.185,13.185,0,0,1,23.439,8.287v3.47H717.9a.694.694,0,0,1,0,1.389Z" fill="#265f3b"/>
      </g>
      <g id="Grupo_145" data-name="Grupo 145">
        <path id="Caminho_98" data-name="Caminho 98" d="M708.183,1539.979H692.917a.694.694,0,0,1,0-1.388h15.266a.694.694,0,0,1,0,1.388Z" fill="#265f3b"/>
      </g>
      <g id="Grupo_146" data-name="Grupo 146">
        <path id="Caminho_99" data-name="Caminho 99" d="M698.468,1570.512a4.858,4.858,0,1,1,4.857-4.859A4.865,4.865,0,0,1,698.468,1570.512Zm0-8.327a3.469,3.469,0,1,0,3.469,3.468A3.473,3.473,0,0,0,698.468,1562.185Z" fill="#265f3b"/>
      </g>
      <g id="Grupo_147" data-name="Grupo 147">
        <path id="Caminho_100" data-name="Caminho 100" d="M723.449,1573.287a3.47,3.47,0,1,1,3.469-3.47A3.474,3.474,0,0,1,723.449,1573.287Zm0-5.552a2.081,2.081,0,1,0,2.081,2.082A2.084,2.084,0,0,0,723.449,1567.735Z" fill="#265f3b"/>
      </g>
      <g id="Grupo_148" data-name="Grupo 148">
        <path id="Caminho_101" data-name="Caminho 101" d="M719.285,1558.021a2.084,2.084,0,0,1-2.081-2.083V1549a2.082,2.082,0,1,1,4.163,0v6.938A2.085,2.085,0,0,1,719.285,1558.021Zm0-9.714a.694.694,0,0,0-.694.693v6.938a.694.694,0,0,0,1.388,0V1549A.694.694,0,0,0,719.285,1548.307Z" fill="#265f3b"/>
      </g>
      <g id="Grupo_149" data-name="Grupo 149">
        <path id="Caminho_102" data-name="Caminho 102" d="M719.285,1548.307a.7.7,0,0,1-.694-.695v-2.776a.694.694,0,0,0-.694-.693.694.694,0,0,1,0-1.389,2.084,2.084,0,0,1,2.082,2.082v2.776A.7.7,0,0,1,719.285,1548.307Z" fill="#265f3b"/>
      </g>
      <g id="Grupo_150" data-name="Grupo 150">
        <path id="Caminho_103" data-name="Caminho 103" d="M719.285,1560.8a.7.7,0,0,1-.694-.694v-2.777a.694.694,0,1,1,1.388,0v2.777A.7.7,0,0,1,719.285,1560.8Z" fill="#265f3b"/>
      </g>
      <g id="Grupo_151" data-name="Grupo 151">
        <path id="Caminho_104" data-name="Caminho 104" d="M727.612,1563.572a.694.694,0,0,1-.694-.694v-7.633h-6.245a.695.695,0,0,1,0-1.389h6.939a.7.7,0,0,1,.694.7v8.327A.694.694,0,0,1,727.612,1563.572Z" fill="#265f3b"/>
      </g>
    </g>
  </g>
</svg>
