<svg xmlns="http://www.w3.org/2000/svg" width="32.04" height="34.132" viewBox="0 0 32.04 34.132">
  <g id="Grupo_96" data-name="Grupo 96" transform="translate(-638.25 -1436.061)">
    <g id="Grupo_95" data-name="Grupo 95">
      <g id="Grupo_90" data-name="Grupo 90">
        <g id="Grupo_89" data-name="Grupo 89">
          <path id="Caminho_67" data-name="Caminho 67" d="M645.583,1444.46a.667.667,0,1,0,.667.667A.667.667,0,0,0,645.583,1444.46Z" fill="#265f3b"/>
        </g>
      </g>
      <g id="Grupo_92" data-name="Grupo 92">
        <g id="Grupo_91" data-name="Grupo 91">
          <path id="Caminho_68" data-name="Caminho 68" d="M651.583,1456.926h-2v-2a.667.667,0,1,0-1.333,0v2h-2a.667.667,0,1,0,0,1.333h2v2a.667.667,0,1,0,1.333,0v-2h2a.667.667,0,0,0,0-1.333Z" fill="#265f3b"/>
        </g>
      </g>
      <g id="Grupo_94" data-name="Grupo 94">
        <g id="Grupo_93" data-name="Grupo 93">
          <path id="Caminho_69" data-name="Caminho 69" d="M669.575,1457.526a5.331,5.331,0,0,0-7.285-1.952l-2.708,1.563v-5.789a3.358,3.358,0,0,0-.666-2l-3.333-4.444v-1.892a2,2,0,0,0,1.333-1.885v-3.067a2,2,0,0,0-2-2h-12a2,2,0,0,0-2,2v3.067a2,2,0,0,0,1.333,1.885v1.893l-3.333,4.444a3.356,3.356,0,0,0-.667,2v12.911a3.337,3.337,0,0,0,3.333,3.333H652.3a5.327,5.327,0,0,0,7.244,1.885l8.082-4.666A5.338,5.338,0,0,0,669.575,1457.526ZM642.25,1438.06a.667.667,0,0,1,.667-.666h12a.668.668,0,0,1,.667.666v3.067a.668.668,0,0,1-.667.666h-12a.667.667,0,0,1-.667-.666v-3.067Zm-2.266,12.088,3.466-4.621a.672.672,0,0,0,.133-.4v-2h10.666v1.333h-6a.667.667,0,1,0,0,1.333h6.333l3.266,4.355a2.021,2.021,0,0,1,.386.978H639.6A2.012,2.012,0,0,1,639.984,1450.148Zm1.6,16.111a2,2,0,0,1-2-2v-.673H651.7a5.346,5.346,0,0,0,.032,2.673Zm10.635-4H639.584v-9.8h18.665v5.448l-4.041,2.333A5.293,5.293,0,0,0,652.218,1462.259Zm6.656,6.063a4,4,0,1,1-4-6.927l3.618-2.089,4,6.927Zm8.083-4.666-3.31,1.911-4-6.928,3.309-1.91a4,4,0,0,1,4,6.927Z" fill="#265f3b"/>
        </g>
      </g>
    </g>
  </g>
</svg>
