<svg xmlns="http://www.w3.org/2000/svg" width="42.099" height="24.494" viewBox="0 0 42.099 24.494">
  <g id="Grupo_131" data-name="Grupo 131" transform="translate(-453.381 -1546.599)">
    <path id="Caminho_85" data-name="Caminho 85" d="M488.043,1558.327c-.091-.823-.171-1.689-.244-2.543-.281-3.262-.439-4.543-.951-5.056a25.72,25.72,0,0,0-6.588-3.677c-2.877-.958-5.036-.393-6.418,1.68a2.661,2.661,0,0,1-.351.421,6.311,6.311,0,0,0-3.976-1.435c-2.964,0-4.832,3.292-5.434,9.526a14.051,14.051,0,0,0-5.088-1.108c-3.859,0-5.612,4.363-5.612,8.418,0,2.363,2.956,4.468,6.76,4.851a.668.668,0,0,0,.07.035,15.462,15.462,0,0,0,4.041.479,36.054,36.054,0,0,0,8.494-1.213.715.715,0,0,0,.277.057,38.594,38.594,0,0,1,7.548,1.382,28.22,28.22,0,0,0,6.74.949,9.606,9.606,0,0,0,5.984-1.637,5.872,5.872,0,0,0,2.176-4.9C495.471,1561.762,492.835,1559.564,488.043,1558.327Zm-18.528-9.207a4.831,4.831,0,0,1,2.708.847,8.005,8.005,0,0,1-2.708.556.7.7,0,0,0,0,1.4,8.467,8.467,0,0,0,4.37-1.282,4.238,4.238,0,0,0,1.122-1.135c1.016-1.523,2.544-1.88,4.807-1.126a25.229,25.229,0,0,1,6.006,3.3,21.445,21.445,0,0,1,.578,4.225c.061.7.126,1.4.2,2.09-.921-.181-1.917-.334-2.975-.454a11.583,11.583,0,0,0-4.515.437c-.2-2.11-.476-4.026-.479-4.048a.7.7,0,1,0-1.389.2c0,.022.3,2.12.5,4.325a19.257,19.257,0,0,0-2.633,1.306,55.993,55.993,0,0,1-9.793-.041c.018-.445.043-.912.078-1.4C465.643,1554.883,466.507,1549.12,469.515,1549.12Zm.673,14.219c-1.684,0-3.383-.1-4.884-.247,0-.133-.033-.879-.022-1.964.933.094,2.665.229,4.985.229.772,0,1.614-.016,2.507-.052C471.872,1561.963,471.008,1562.652,470.188,1563.339Zm-15.4,1.214c0-3.378,1.316-7.015,4.209-7.015a13.105,13.105,0,0,1,4.97,1.173c-.123,2-.088,3.635-.07,4.231-1.976-.231-3.347-.477-3.374-.482a.7.7,0,0,0-.252,1.381,64.2,64.2,0,0,0,8.311.874l-.454.394c-.4.351-.793.692-1.172,1.016a8.8,8.8,0,0,1-6.5,1.9C457.379,1567.768,454.784,1566.176,454.784,1564.553Zm37.645,3.8c-2.072,1.619-6.165,1.772-11.519.433-2.016-.5-3.578-.827-4.77-1.037.449-.141.891-.281,1.314-.421,1.763-.589,4.96.164,6.572.7a.7.7,0,1,0,.443-1.333c-.8-.265-4.91-1.55-7.458-.7a48.98,48.98,0,0,1-11.065,2.447,9.034,9.034,0,0,0,1.921-1.249c.381-.326.775-.669,1.18-1.023,2.624-2.287,5.893-5.133,9.378-6.48a10.662,10.662,0,0,1,5.041-.75,32.928,32.928,0,0,1,3.769.631c2.554.6,6.833,2.057,6.833,4.985A4.539,4.539,0,0,1,492.429,1568.35Z" fill="#265f3b"/>
  </g>
</svg>
