<svg xmlns="http://www.w3.org/2000/svg" width="36.872" height="28.665" viewBox="0 0 36.872 28.665">
  <g id="Grupo_87" data-name="Grupo 87" transform="translate(-371.128 -1438.984)">
    <g id="Grupo_66" data-name="Grupo 66">
      <g id="Grupo_65" data-name="Grupo 65">
        <path id="Caminho_56" data-name="Caminho 56" d="M385.684,1443.287a2.433,2.433,0,0,0-2.43,2.43.577.577,0,1,0,1.155,0,1.275,1.275,0,1,1,2.55,0,.577.577,0,1,0,1.155,0A2.433,2.433,0,0,0,385.684,1443.287Z" fill="#265f3b"/>
      </g>
    </g>
    <g id="Grupo_68" data-name="Grupo 68">
      <g id="Grupo_67" data-name="Grupo 67">
        <path id="Caminho_57" data-name="Caminho 57" d="M393.443,1443.287a2.433,2.433,0,0,0-2.43,2.43.577.577,0,1,0,1.155,0,1.275,1.275,0,1,1,2.55,0,.577.577,0,1,0,1.155,0A2.433,2.433,0,0,0,393.443,1443.287Z" fill="#265f3b"/>
      </g>
    </g>
    <g id="Grupo_70" data-name="Grupo 70">
      <g id="Grupo_69" data-name="Grupo 69">
        <path id="Caminho_58" data-name="Caminho 58" d="M389.564,1447.257a2.433,2.433,0,0,0-2.43,2.43.577.577,0,1,0,1.155,0,1.275,1.275,0,1,1,2.55,0,.577.577,0,1,0,1.155,0A2.433,2.433,0,0,0,389.564,1447.257Z" fill="#265f3b"/>
      </g>
    </g>
    <g id="Grupo_72" data-name="Grupo 72">
      <g id="Grupo_71" data-name="Grupo 71">
        <path id="Caminho_59" data-name="Caminho 59" d="M380.776,1447.257a2.433,2.433,0,0,0-2.43,2.43.577.577,0,1,0,1.155,0,1.275,1.275,0,1,1,2.55,0,.577.577,0,1,0,1.155,0A2.433,2.433,0,0,0,380.776,1447.257Z" fill="#265f3b"/>
      </g>
    </g>
    <g id="Grupo_74" data-name="Grupo 74">
      <g id="Grupo_73" data-name="Grupo 73">
        <path id="Caminho_60" data-name="Caminho 60" d="M398.352,1447.257a2.434,2.434,0,0,0-2.431,2.43.577.577,0,1,0,1.155,0,1.276,1.276,0,0,1,2.551,0,.577.577,0,1,0,1.155,0A2.433,2.433,0,0,0,398.352,1447.257Z" fill="#265f3b"/>
      </g>
    </g>
    <g id="Grupo_76" data-name="Grupo 76">
      <g id="Grupo_75" data-name="Grupo 75">
        <path id="Caminho_61" data-name="Caminho 61" d="M392.52,1463.132c-.282-1.266-1.492-3.1-2.946-3.1h-.021c-1.453,0-2.664,1.833-2.945,3.1-.268,1.208.32,1.626.585,1.75a2.454,2.454,0,0,0,1.663.119,2.868,2.868,0,0,1,.7-.087h.021a2.87,2.87,0,0,1,.7.087,2.825,2.825,0,0,0,.7.09h0a2.267,2.267,0,0,0,.967-.209C392.2,1464.758,392.788,1464.34,392.52,1463.132Zm-1.1.717a1.119,1.119,0,0,1-.45.087,1.71,1.71,0,0,1-.412-.054,4,4,0,0,0-.981-.122h-.021a4,4,0,0,0-.981.122,1.334,1.334,0,0,1-.861-.033,2.323,2.323,0,0,1,.427-1.444c.425-.728.993-1.217,1.415-1.217h.021c.422,0,.991.489,1.416,1.217A2.33,2.33,0,0,1,391.417,1463.849Z" fill="#265f3b"/>
      </g>
    </g>
    <g id="Grupo_78" data-name="Grupo 78">
      <g id="Grupo_77" data-name="Grupo 77">
        <path id="Caminho_62" data-name="Caminho 62" d="M389.3,1456.964a1.935,1.935,0,0,0-3.529,1.589,2.5,2.5,0,0,0,2.1,1.4h0a1.541,1.541,0,0,0,.639-.134A2.209,2.209,0,0,0,389.3,1456.964Zm-1.264,1.806a.4.4,0,0,1-.165.032h0a1.36,1.36,0,0,1-1.047-.723.781.781,0,0,1,.711-1.1.783.783,0,0,1,.712.46C388.455,1457.909,388.341,1458.631,388.032,1458.77Z" fill="#265f3b"/>
      </g>
    </g>
    <g id="Grupo_80" data-name="Grupo 80">
      <g id="Grupo_79" data-name="Grupo 79">
        <path id="Caminho_63" data-name="Caminho 63" d="M386.023,1459.219a1.74,1.74,0,1,0-1.925,2.9,2.647,2.647,0,0,0,1.409.394h0a1.587,1.587,0,0,0,1.39-.629C387.475,1461.015,386.754,1459.7,386.023,1459.219Zm-.088,2.027a.594.594,0,0,1-.428.112h0a1.533,1.533,0,0,1-.77-.2.585.585,0,1,1,.647-.975C385.768,1460.436,386.039,1461.089,385.935,1461.246Z" fill="#265f3b"/>
      </g>
    </g>
    <g id="Grupo_82" data-name="Grupo 82">
      <g id="Grupo_81" data-name="Grupo 81">
        <path id="Caminho_64" data-name="Caminho 64" d="M392.39,1455.994a1.934,1.934,0,0,0-2.559.97,2.648,2.648,0,0,0-.162,1.537,1.741,1.741,0,0,0,.952,1.322,1.542,1.542,0,0,0,.64.134,2.5,2.5,0,0,0,2.1-1.4A1.936,1.936,0,0,0,392.39,1455.994Zm-.083,2.085a1.355,1.355,0,0,1-1.046.723.4.4,0,0,1-.165-.032c-.2-.088-.27-.372-.293-.491a1.468,1.468,0,0,1,.081-.84.783.783,0,0,1,.713-.461.781.781,0,0,1,.71,1.1Z" fill="#265f3b"/>
      </g>
    </g>
    <g id="Grupo_84" data-name="Grupo 84">
      <g id="Grupo_83" data-name="Grupo 83">
        <path id="Caminho_65" data-name="Caminho 65" d="M395.517,1459.706a1.74,1.74,0,0,0-2.413-.487,2.648,2.648,0,0,0-.9,1.114,1.437,1.437,0,0,0,1.415,2.18,2.653,2.653,0,0,0,1.41-.394A1.743,1.743,0,0,0,395.517,1459.706Zm-1.126,1.45a1.539,1.539,0,0,1-.771.2.6.6,0,0,1-.428-.112.608.608,0,0,1,.07-.449,1.518,1.518,0,0,1,.481-.616.585.585,0,1,1,.648.975Z" fill="#265f3b"/>
      </g>
    </g>
    <g id="Grupo_86" data-name="Grupo 86">
      <g id="Grupo_85" data-name="Grupo 85">
        <path id="Caminho_66" data-name="Caminho 66" d="M407.879,1458.616a36.174,36.174,0,0,0-3.461-8.874c.026-.04.053-.079.078-.119a3.3,3.3,0,0,0,.483-2.547,2.588,2.588,0,0,0-2.334-2.093,3.7,3.7,0,0,0-.707.068,3.717,3.717,0,0,0-4.124-2.343,3.727,3.727,0,0,0-3.54-2.59,3.678,3.678,0,0,0-1.695.409,3.717,3.717,0,0,0-6.03,0,3.68,3.68,0,0,0-1.7-.409,3.728,3.728,0,0,0-3.54,2.59,3.717,3.717,0,0,0-4.124,2.343,3.693,3.693,0,0,0-.706-.068,2.589,2.589,0,0,0-2.335,2.093,3.3,3.3,0,0,0,.484,2.547c.025.04.051.079.078.119a52.189,52.189,0,0,0-2.21,4.767.577.577,0,0,0,.324.75.591.591,0,0,0,.213.04.579.579,0,0,0,.537-.364c.65-1.64,1.407-3.2,1.95-4.254q.1.09.2.177l.007.006,0,0q.074.063.15.123l.007.006.011.009c.123.1.252.193.386.286l.033.023.009.006c.046.032.093.063.141.1l.038.025.03.019.132.084.035.022.075.045.1.061.028.017.081.046.111.063.022.012c.043.024.088.047.137.073l.073.039.013.007c.069.036.14.072.212.107l.013.007h0c.065.034.136.07.215.109a23.791,23.791,0,0,0,8.015,1.935h0c.782.084,1.561.142,2.316.172a35.068,35.068,0,0,0,4.871-.144l.189-.017c.137-.012.274-.024.411-.038l.382-.04.162-.018c.182-.021.362-.042.541-.065a.571.571,0,0,0,.16-.046l.007,0,.031-.016.019-.01.034-.022.013-.009.032-.026.011-.009.027-.025.013-.013.022-.026.014-.017.023-.033.009-.012c.008-.014.016-.028.023-.042l0-.007a.586.586,0,0,0,.039-.1v0a.583.583,0,0,0,.016-.229c0-.013-.005-.026-.007-.039l0-.019v0a.578.578,0,0,0-.576-.44.545.545,0,0,0-.059,0h-.007c-.17.022-.342.043-.515.062l-.162.018c-.12.014-.241.026-.362.038l-.425.04c-1.134.1-2.3.151-3.5.151s-2.343-.05-3.452-.145l-.185-.018h-.009a23.076,23.076,0,0,1-7.519-1.774l-.031-.015-.081-.04c-.06-.03-.119-.059-.176-.09l0,0-.007,0-.007,0-.019-.009-.179-.091-.154-.082-.026-.014c-1.814-.993-2.722-2.273-2.442-3.475a1.455,1.455,0,0,1,1.21-1.2,2.527,2.527,0,0,1,.9.163.578.578,0,0,0,.77-.43,2.561,2.561,0,0,1,3.393-1.91.578.578,0,0,0,.772-.467,2.558,2.558,0,0,1,4.077-1.706.577.577,0,0,0,.867-.208,2.56,2.56,0,0,1,4.606,0,.577.577,0,0,0,.867.208,2.539,2.539,0,0,1,1.54-.516,2.565,2.565,0,0,1,2.537,2.222.578.578,0,0,0,.772.467,2.56,2.56,0,0,1,3.392,1.91.578.578,0,0,0,.77.429,2.555,2.555,0,0,1,.9-.163,1.457,1.457,0,0,1,1.21,1.2c.3,1.283-.756,2.655-2.82,3.671l-.014.008a11,11,0,0,1-1.152.517l-.058.022a20.8,20.8,0,0,1-3.421.937.577.577,0,0,0,.168,1.141.436.436,0,0,0,.061-.008,21.158,21.158,0,0,0,3.79-1.063c.254-.09.485-.18.708-.273a9.6,9.6,0,0,0,1.72-1l.008-.005.009-.007.013-.008.033-.024c.1-.068.187-.136.277-.206l.028-.022c.116-.089.263-.2.407-.324a33.542,33.542,0,0,1,3.133,8.14c0,.016.006.032.01.048a2.69,2.69,0,0,1,.09.684v.06c0,.016,0,.03,0,.041l0,.026c-.084,1.71-1.9,3.422-4.993,4.7a36.921,36.921,0,0,1-24.54.011c-3.087-1.267-4.916-2.972-5.018-4.678,0-.014,0-.028,0-.042a.352.352,0,0,1,0-.072.308.308,0,0,0,0-.043,2.676,2.676,0,0,1,.084-.659l.009-.044a15.773,15.773,0,0,1,.559-2.177.577.577,0,1,0-1.1-.357,16.942,16.942,0,0,0-.6,2.318,3.9,3.9,0,0,0-.113.9,1.564,1.564,0,0,0,.008.265c.142,2.191,2.176,4.2,5.731,5.659a38.055,38.055,0,0,0,25.419-.012c3.566-1.47,5.592-3.492,5.706-5.7a1.412,1.412,0,0,0,.005-.147c0-.017,0-.033,0-.049A3.873,3.873,0,0,0,407.879,1458.616Z" fill="#265f3b"/>
      </g>
    </g>
  </g>
</svg>
