<svg xmlns="http://www.w3.org/2000/svg" width="30.247" height="34.411" viewBox="0 0 30.247 34.411">
  <g id="Grupo_134" data-name="Grupo 134" transform="translate(-213.448 -1591)">
    <g id="Grupo_133" data-name="Grupo 133">
      <path id="Caminho_86" data-name="Caminho 86" d="M242.329,1620.177a42.234,42.234,0,0,0,.2-9.912,49.1,49.1,0,0,0-1.486-8.4,2.1,2.1,0,0,0-.224-4.183h-1.1a3.472,3.472,0,0,0-3.064-2.466c-.276-1.6-1.983-2.847-4.06-2.892a5.611,5.611,0,0,0-7.259.006c-.093-.005-.186-.007-.279-.007-2.127,0-3.892,1.259-4.175,2.893a3.471,3.471,0,0,0-3.065,2.466h-1.071a2.1,2.1,0,0,0-.624,4.1,48.961,48.961,0,0,0-1.509,8.478,42.178,42.178,0,0,0,.2,9.912,3.131,3.131,0,0,0-1.275,3.251c.163.6.818,1.983,3.356,1.983h23.352c2.538,0,3.193-1.387,3.357-1.983A3.133,3.133,0,0,0,242.329,1620.177Zm-20.959-23.99a.509.509,0,0,0,.481-.509c0-1.292,1.438-2.342,3.207-2.342.143,0,.285.007.423.02a.5.5,0,0,0,.416-.156,4.56,4.56,0,0,1,6.128-.018.512.512,0,0,0,.4.155.579.579,0,0,1,.06,0c1.768,0,3.207,1.05,3.207,2.342v.006a.5.5,0,0,0,.481.5,2.708,2.708,0,0,1,2.508,1.5H218.861A2.711,2.711,0,0,1,221.37,1596.187Zm21.262,26.975c-.22.8-1.067,1.241-2.385,1.241H216.9c-1.318,0-2.165-.441-2.385-1.241a2.166,2.166,0,0,1,1-2.24h12.359a.5.5,0,1,0,0-1.007H215.794a45.842,45.842,0,0,1,1.349-18.033h10.722a.5.5,0,1,0,0-1.008H216.747a1.09,1.09,0,1,1,0-2.179h24.071a1.09,1.09,0,0,1,0,2.179H230.191a.5.5,0,1,0,0,1.008H240a45.838,45.838,0,0,1,1.349,18.032H230.637a.5.5,0,0,0,0,1.008h11A2.166,2.166,0,0,1,242.632,1623.162Z" fill="#265f3b"/>
      <path id="Caminho_87" data-name="Caminho 87" d="M233.6,1617.234a.5.5,0,0,0,.754-.669L232.7,1614.7a4.4,4.4,0,0,0,.965-4.747,8.159,8.159,0,0,0-3.225-3.86,10.9,10.9,0,0,0-5.521-1.8h-.026a2.229,2.229,0,0,0-1.645.606,2.552,2.552,0,0,0-.608,1.917,13.166,13.166,0,0,0,1.367,5.932,6.829,6.829,0,0,0,3.193,3.164,4.783,4.783,0,0,0,1.928.417,4.726,4.726,0,0,0,2.814-.961Zm-6-2.251c-1.862-.817-3.88-3.4-3.957-8.189a1.661,1.661,0,0,1,.323-1.2,1.257,1.257,0,0,1,.92-.3c3.979.175,7,2.7,7.827,5a3.413,3.413,0,0,1-.689,3.649l-.96-1.081.237-1.87a.5.5,0,1,0-1-.126l-.126.994-1.249-1.409.184-1.451a.5.5,0,1,0-1-.127l-.073.577-.818-.921a.5.5,0,1,0-.753.669l.842.949-.728.025a.5.5,0,0,0,.016,1.007h.018l1.563-.053,1.27,1.431-1.176.04a.5.5,0,0,0,.017,1.008h.017l2.01-.068.95,1.07A3.655,3.655,0,0,1,227.6,1614.983Z" fill="#265f3b"/>
    </g>
  </g>
</svg>
