<svg xmlns="http://www.w3.org/2000/svg" width="28.858" height="28.045" viewBox="0 0 28.858 28.045">
  <g id="Grupo_106" data-name="Grupo 106" transform="translate(-876.142 -1442.018)">
    <path id="Caminho_73" data-name="Caminho 73" d="M903.822,1447.95h-1.089a1.179,1.179,0,0,0-1.1.755H900.4l1.4-2.19a2.156,2.156,0,0,0-3.633-2.322l-2.619,4.1a1.161,1.161,0,0,1-1.334.481,39.257,39.257,0,0,0-7.986-1.437,6.938,6.938,0,0,0-2.217-2.168,1.742,1.742,0,0,0-1.027-3.15H879.94a1.743,1.743,0,0,0-.221,3.472,7.661,7.661,0,0,1,1.3,3.215h-1.515a1.179,1.179,0,0,0-1.1-.755H877.32a1.179,1.179,0,0,0-1.178,1.178v5.036a8.774,8.774,0,0,0,1.735,5.262.423.423,0,1,0,.679-.5,7.939,7.939,0,0,1-1.568-4.759v-5.036a.333.333,0,0,1,.332-.333h1.089a.333.333,0,0,1,.333.333c0,5.278,0,5.052,0,5.269a6.225,6.225,0,0,0,3.588,5.424,4.089,4.089,0,0,0,.019,1.9,8.033,8.033,0,0,1-2.715-1.608.422.422,0,1,0-.565.628,8.84,8.84,0,0,0,3.728,2,3.65,3.65,0,0,0,1.394,1.29l-.661,3.275a2.3,2.3,0,0,0,2.258,2.761h4.4a2.3,2.3,0,0,0,2.258-2.761l-.684-3.384a3.691,3.691,0,0,0,1.012-.906h3.37a8.858,8.858,0,0,0,8.848-8.848v-5.036a1.179,1.179,0,0,0-1.178-1.178Zm-17.168.274a38.516,38.516,0,0,1,7.3,1.353,2.006,2.006,0,0,0,2.307-.83l2.62-4.1a1.31,1.31,0,1,1,2.207,1.411c-.221.347-2.3,3.6-2.619,4.1a4.608,4.608,0,0,1-3.9,2.137,4.776,4.776,0,0,1-1.545-.264,36.475,36.475,0,0,0-6.361-1.176,3.645,3.645,0,0,0-.006-2.631Zm-7.611-4.463a.9.9,0,0,1,.9-.9h3.042a.9.9,0,0,1,0,1.8H879.94A.9.9,0,0,1,879.043,1443.761Zm3.844,1.743c1.592.778,3.113,2.265,3.172,4.064a2.061,2.061,0,1,1-4.118.114,8.167,8.167,0,0,0-1.2-4.178Zm-1.785,4.361a2.905,2.905,0,0,0,2.358,2.672l-.99,6.407a5.382,5.382,0,0,1-2.883-4.78v-4.613h1.507c.005.243,0,.187.008.314Zm9.878,14.413.645,3.192a1.458,1.458,0,0,1-1.429,1.747h-4.4a1.459,1.459,0,0,1-1.43-1.747l.634-3.134a5.338,5.338,0,0,0,1.471.114l-.357,1.766a1.282,1.282,0,0,0,1.257,1.536h1.254a1.281,1.281,0,0,0,1.256-1.536l-.357-1.766A4.362,4.362,0,0,0,890.98,1464.278Zm-1.931,2.106a.437.437,0,0,1-.428.523h-1.254a.437.437,0,0,1-.428-.523l.391-1.934h1.328Zm.972-2.784c-.076,0-4.09.011-4.29,0a2.832,2.832,0,0,1-2.652-2.946c.011-.244-.048.192,1.231-8.082a2.888,2.888,0,0,0,1.824-.917,40.743,40.743,0,0,1,5.315.834c1.3,8.46,1.3,8.046,1.227,8.622a2.832,2.832,0,0,1-2.655,2.49Zm14.134-9.436a8.011,8.011,0,0,1-8,8h-2.885a3.674,3.674,0,0,0,.256-1.754h2.629a6.268,6.268,0,0,0,4.591-2.011.423.423,0,1,0-.622-.573,5.418,5.418,0,0,1-3.969,1.739H893.4c-.169-1.093-.818-5.294-1.059-6.855a6.951,6.951,0,0,0,2.226.428,5.449,5.449,0,0,0,4.612-2.526l.68-1.064h1.7v4.614a5.358,5.358,0,0,1-.549,2.376.423.423,0,1,0,.759.372,6.189,6.189,0,0,0,.636-2.749v-5.035a.333.333,0,0,1,.332-.333h1.089a.333.333,0,0,1,.333.333v5.036Z" fill="#265f3b"/>
  </g>
</svg>
