<svg xmlns="http://www.w3.org/2000/svg" width="33.122" height="33.121" viewBox="0 0 33.122 33.121">
  <g id="Grupo_64" data-name="Grupo 64" transform="translate(-212.01 -1436.756)">
    <g id="Grupo_63" data-name="Grupo 63">
      <g id="Grupo_56" data-name="Grupo 56">
        <g id="Grupo_55" data-name="Grupo 55">
          <path id="Caminho_52" data-name="Caminho 52" d="M244.526,1443.767l-1.6-1.6a.647.647,0,1,0-.915.915l1.595,1.6a.776.776,0,0,1-1.1,1.1l-1.922-1.921h0l-2.562-2.563h0l-1.922-1.922a.777.777,0,0,1,1.1-1.1l1.3,1.305a.647.647,0,1,0,.915-.915l-1.3-1.305a2.071,2.071,0,0,0-2.929,2.928l1.465,1.465-2.537,2.536-1.556-1.555-.739-.74a.647.647,0,1,0-.915.915l.282.282-10.861,10.861a5.313,5.313,0,0,0-1.167,5.742l-2.522,2.523a2.071,2.071,0,0,0-.385,2.4l-4.057,4.057a.647.647,0,0,0,.915.915l4.057-4.058a2.073,2.073,0,0,0,2.4-.384l2.522-2.523a5.321,5.321,0,0,0,5.742-1.166L238.7,1450.7l.282.282a.647.647,0,1,0,.915-.915l-.74-.739h0l-1.556-1.555,2.537-2.537,1.464,1.464a2.07,2.07,0,1,0,2.928-2.928Zm-25.871,20.564a.776.776,0,1,1-1.1-1.1l2.265-2.266a5.289,5.289,0,0,0,1.1,1.1Zm19.125-14.55-1.845,1.846-1.266-1.267a.647.647,0,0,0-.915.915l1.266,1.266-2.135,2.136-1.266-1.266a.647.647,0,0,0-.915.915l1.266,1.266-2.136,2.135-1.266-1.266a.647.647,0,1,0-.915.915l1.266,1.266-2,2c-.046.045-.092.089-.14.132l-1.262-1.262a.647.647,0,0,0-.915.915l1.063,1.063a4.011,4.011,0,0,1-4.42-6.522l10.861-10.861Zm-1.1-2.928-1.647-1.648,2.537-2.537,1.647,1.648Z" fill="#265f3b"/>
        </g>
      </g>
      <g id="Grupo_58" data-name="Grupo 58">
        <g id="Grupo_57" data-name="Grupo 57">
          <path id="Caminho_53" data-name="Caminho 53" d="M241.324,1440.564a.647.647,0,1,0,.189.457A.655.655,0,0,0,241.324,1440.564Z" fill="#265f3b"/>
        </g>
      </g>
      <g id="Grupo_60" data-name="Grupo 60">
        <g id="Grupo_59" data-name="Grupo 59">
          <path id="Caminho_54" data-name="Caminho 54" d="M228.919,1450.251a.647.647,0,0,0-.915,0l-5,5a.647.647,0,0,0,.915.915l5-5A.645.645,0,0,0,228.919,1450.251Z" fill="#265f3b"/>
        </g>
      </g>
      <g id="Grupo_62" data-name="Grupo 62">
        <g id="Grupo_61" data-name="Grupo 61">
          <path id="Caminho_55" data-name="Caminho 55" d="M230.531,1448.639a.648.648,0,1,0,.189.458A.651.651,0,0,0,230.531,1448.639Z" fill="#265f3b"/>
        </g>
      </g>
    </g>
  </g>
</svg>
