<svg xmlns="http://www.w3.org/2000/svg" width="37.376" height="37.555" viewBox="0 0 37.376 37.555">
  <g id="Grupo_50" data-name="Grupo 50" transform="translate(-829.709 -1970.862)">
    <g id="Grupo_49" data-name="Grupo 49">
      <path id="Caminho_50" data-name="Caminho 50" d="M861.64,1976.319a18.615,18.615,0,0,0-29.291,22.455l-2.64,9.643,9.866-2.588a18.586,18.586,0,0,0,8.893,2.266h.008a18.619,18.619,0,0,0,13.164-31.776Zm-13.165,28.633h-.006a15.452,15.452,0,0,1-7.873-2.156l-.564-.336L834.177,2004l1.563-5.708-.368-.585a15.468,15.468,0,1,1,13.1,7.249Zm8.485-11.585c-.465-.233-2.751-1.357-3.178-1.513s-.736-.232-1.046.233-1.2,1.513-1.472,1.823-.542.349-1.008.117a12.712,12.712,0,0,1-3.739-2.308,14.037,14.037,0,0,1-2.587-3.222c-.271-.465,0-.693.2-.948a13.187,13.187,0,0,0,1.163-1.591.858.858,0,0,0-.039-.815c-.116-.232-1.046-2.521-1.434-3.452-.378-.907-.761-.784-1.046-.8s-.581-.016-.891-.016a1.706,1.706,0,0,0-1.24.582,5.212,5.212,0,0,0-1.628,3.879,9.045,9.045,0,0,0,1.9,4.81c.232.311,3.279,5.008,7.943,7.021a26.526,26.526,0,0,0,2.651.98,6.369,6.369,0,0,0,2.929.184c.894-.133,2.751-1.125,3.139-2.211a3.893,3.893,0,0,0,.271-2.211C857.735,1993.716,857.425,1993.6,856.96,1993.367Z" fill="#80ba27" fill-rule="evenodd"/>
    </g>
  </g>
</svg>
